<?xml version="1.0" encoding="iso-8859-1"?>
<!-- Uploaded to: SVG Repo, www.svgrepo.com, Generator: SVG Repo Mixer Tools -->
<svg fill="#000000" height="800px" width="800px" version="1.1" id="Layer_1" xmlns="http://www.w3.org/2000/svg" xmlns:xlink="http://www.w3.org/1999/xlink" 
	 viewBox="0 0 504.173 504.173" xml:space="preserve">
<g>
	<g>
		<path d="M479.129,122.25l-65.903-18.167c-0.102-0.034-0.205-0.06-0.307-0.085c-5.751-1.357-11.537-2.577-17.331-3.78l-0.905-1.425
			c-6.332-9.916-12.314-19.277-17.331-29.32L362.12,39.016c-2.901-5.786-12.382-5.786-15.266,0l-12.211,24.422
			c-4.284,8.559-8.721,17.254-13.73,25.523c-77.218-7.518-154.428-2.509-229.973,15.121L25.036,122.25
			c-16.964,4.685-27.708,21.914-24.457,39.202l46.857,249.933c0.452,2.449,1.963,4.582,4.13,5.828
			c1.306,0.751,2.773,1.135,4.25,1.135c0.964,0,1.946-0.171,2.867-0.503c54.255-19.371,110.942-30.285,167.97-32.785l6.963,21.675
			c-9.404,6.084-15.667,16.614-15.667,28.629c0,18.825,15.309,34.133,34.133,34.133s34.133-15.309,34.133-34.133
			s-15.309-34.133-34.133-34.133c-0.768,0-1.485,0.171-2.236,0.222l-5.402-16.802c68.019-0.879,136.209,10.112,201.037,33.203
			c2.364,0.819,4.949,0.597,7.117-0.64c2.167-1.246,3.678-3.379,4.139-5.828l46.857-249.933
			C506.845,144.163,496.101,126.934,479.129,122.25z M486.826,158.303l-45.03,240.196c-61.457-20.71-125.662-31.07-189.833-31.07
			c-4.326,0-8.644,0.162-12.971,0.256l-64.119-199.467c-1.442-4.489-6.238-6.921-10.726-5.513
			c-4.497,1.442-6.963,6.246-5.521,10.726l62.643,194.884c-53.862,2.773-107.383,12.774-158.891,30.174L17.339,158.303
			c-1.621-8.653,3.755-17.254,12.237-19.601l65.579-18.091c70.417-16.418,142.626-21.649,214.852-15.599
			c-0.256,0.393-0.435,0.811-0.683,1.203c-0.444,0.734-0.862,1.485-1.263,2.236c-0.512,0.981-0.99,1.98-1.417,2.995
			c-0.324,0.751-0.64,1.519-0.922,2.295c-0.384,1.084-0.7,2.185-0.99,3.302c-0.188,0.742-0.393,1.476-0.546,2.236
			c-0.256,1.271-0.418,2.577-0.555,3.9c-0.051,0.503-0.179,0.981-0.213,1.493c-0.009,0.119,0.017,0.23,0.009,0.35
			c-0.017,0.256-0.068,0.495-0.085,0.751c-0.077,1.681,0.128,3.311,0.213,4.958c0.068,1.203,0.009,2.415,0.162,3.601
			c0.316,2.594,0.896,5.094,1.596,7.569c0.102,0.358,0.137,0.725,0.239,1.075c5.316,17.459,19.695,31.462,38.118,35.268
			c0.128,0.026,0.256,0.034,0.384,0.06c1.724,0.341,3.447,0.606,5.163,0.777c0.794,0.077,1.587,0.077,2.381,0.119
			c0.939,0.051,1.886,0.145,2.816,0.145c0.085,0,0.171-0.026,0.247-0.026c2.62-0.009,5.205-0.247,7.765-0.649
			c0.555-0.094,1.101-0.196,1.647-0.307c2.389-0.452,4.736-1.033,7.031-1.818c0.196-0.068,0.401-0.111,0.589-0.179
			c2.415-0.862,4.745-1.954,7.023-3.174c0.529-0.29,1.058-0.589,1.579-0.896c2.261-1.323,4.454-2.756,6.511-4.429
			c5.248-4.275,9.446-9.489,12.595-15.258c4.036-7.407,6.281-15.753,6.281-24.448c0-2.611-0.307-5.12-0.759-7.586
			c-0.06-0.307-0.034-0.631-0.094-0.939c1.34,0.307,2.679,0.614,4.011,0.93l65.741,18.133
			C483.08,141.049,488.447,149.65,486.826,158.303z"/>
	</g>
</g>
</svg>